<svg width="60" height="60" viewBox="0 0 60 60" fill="none" xmlns="http://www.w3.org/2000/svg">
<path fill-rule="evenodd" clip-rule="evenodd" d="M30 60C46.5685 60 60 46.5685 60 30C60 13.4315 46.5685 -9.6248e-08 30 -6.20041e-08C13.4315 -2.77602e-08 2.77602e-08 13.4315 6.20041e-08 30C9.6248e-08 46.5685 13.4315 60 30 60Z" fill="#E6007A" fill-opacity="0.1"/>
<path d="M30.9761 41.8165C30.71 41.7625 30.4359 41.7617 30.1695 41.814C29.9032 41.8664 29.6498 41.9708 29.4239 42.1214C29.198 42.272 29.0041 42.4657 28.8534 42.6915C28.7026 42.9172 28.598 43.1706 28.5454 43.4369C28.4883 43.7032 28.4851 43.9782 28.536 44.2458C28.587 44.5133 28.6911 44.7679 28.8422 44.9945C28.9932 45.2211 29.1882 45.4152 29.4156 45.5651C29.6429 45.7151 29.8981 45.8179 30.1658 45.8675C30.4319 45.9281 30.7075 45.9337 30.9757 45.884C31.244 45.8344 31.4994 45.7306 31.7262 45.5789C31.9529 45.4273 32.1464 45.2309 32.2947 45.0019C32.443 44.7729 32.5431 44.5161 32.5888 44.2471C32.6797 43.7128 32.5635 43.164 32.2639 42.7123C31.9642 42.2607 31.5037 41.9403 30.9761 41.8165Z" fill="#E6007A"/>
<path d="M30.2998 14.0352C27.0415 14.0474 23.92 15.3471 21.616 17.6512C19.312 19.9552 18.0122 23.0766 18 26.335C17.9998 27.6935 18.2187 29.0432 18.6482 30.332C18.8024 30.7539 19.1121 31.1007 19.5138 31.3016C19.9155 31.5024 20.3788 31.5421 20.8087 31.4123C21.2261 31.2537 21.5671 30.9418 21.7621 30.5402C21.9572 30.1387 21.9915 29.6778 21.8582 29.2518C21.4928 28.2495 21.3302 27.1846 21.3798 26.1189C21.4308 24.3987 21.981 22.7304 22.9633 21.3172C23.9456 19.9041 25.3176 18.807 26.9123 18.1598C28.5069 17.5125 30.2554 17.3429 31.9448 17.6717C33.6341 18.0005 35.1914 18.8134 36.4269 20.0114C37.6625 21.2095 38.523 22.741 38.9036 24.4194C39.2843 26.0978 39.1687 27.8506 38.5708 29.4645C37.973 31.0783 36.9188 32.4835 35.5366 33.5089C34.1544 34.5343 32.5038 35.1356 30.786 35.2396C30.786 35.2396 29.0652 35.3477 28.201 35.4557C27.8841 35.5004 27.5698 35.5622 27.2596 35.6409C27.2373 35.6576 27.2097 35.6657 27.1819 35.6637C27.1542 35.6618 27.128 35.6498 27.1083 35.6301C27.0886 35.6104 27.0767 35.5843 27.0747 35.5565C27.0727 35.5287 27.0808 35.5011 27.0976 35.4788L27.3676 34.0204L28.9881 26.6822C29.0812 26.2453 28.9969 25.7893 28.7538 25.4145C28.5107 25.0397 28.1286 24.7768 27.6917 24.6837C27.2548 24.5906 26.7988 24.6748 26.424 24.918C26.0492 25.1611 25.7863 25.5431 25.6932 25.98C25.6932 25.98 21.835 43.8973 21.835 44.0594C21.7819 44.2756 21.7734 44.5003 21.8102 44.7199C21.847 44.9394 21.9281 45.1492 22.0488 45.3363C22.1694 45.5234 22.327 45.6839 22.5118 45.808C22.6966 45.932 22.9048 46.0171 23.1236 46.0579C23.3403 46.1098 23.5653 46.1171 23.7849 46.0794C24.0045 46.0417 24.2141 45.9597 24.401 45.8385C24.5879 45.7172 24.7482 45.5592 24.8722 45.3741C24.9962 45.189 25.0812 44.9806 25.1222 44.7616C25.1762 44.5455 25.6623 42.1689 25.6623 42.1689C25.8414 41.2941 26.2843 40.4952 26.9314 39.8799C27.5784 39.2645 28.3986 38.8623 29.2813 38.7274C29.6517 38.6734 31.2181 38.5654 31.2181 38.5654C34.3484 38.2761 37.2488 36.7984 39.3231 34.4363C41.3974 32.0741 42.4879 29.007 42.3703 25.8656C42.2527 22.7242 40.936 19.7472 38.6909 17.5467C36.4458 15.3463 33.443 14.0896 30.2998 14.0352Z" fill="#1E1E1E"/>
</svg>
