<svg width="15" height="15" viewBox="0 0 15 15" fill="none" xmlns="http://www.w3.org/2000/svg">
<path fill-rule="evenodd" clip-rule="evenodd" d="M7.5 15C11.6421 15 15 11.6421 15 7.5C15 3.35786 11.6421 0 7.5 0C3.35786 0 0 3.35786 0 7.5C0 11.6421 3.35786 15 7.5 15Z" fill="#C4C9D9"/>
<path fill-rule="evenodd" clip-rule="evenodd" d="M9.97487 5.02517C9.77961 4.8299 9.46303 4.8299 9.26777 5.02517L7.5 6.79293L5.73223 5.02517C5.53697 4.8299 5.22039 4.8299 5.02513 5.02517C4.82986 5.22043 4.82986 5.53701 5.02513 5.73227L6.79289 7.50004L5.02513 9.26781C4.82986 9.46307 4.82986 9.77965 5.02513 9.97491C5.22039 10.1702 5.53697 10.1702 5.73223 9.97491L7.5 8.20715L9.26777 9.97491C9.46303 10.1702 9.77961 10.1702 9.97487 9.97491C10.1701 9.77965 10.1701 9.46307 9.97487 9.26781L8.20711 7.50004L9.97487 5.73227C10.1701 5.53701 10.1701 5.22043 9.97487 5.02517Z" fill="#FAFBFC"/>
</svg>
