<svg width="60" height="60" viewBox="0 0 60 60" fill="none" xmlns="http://www.w3.org/2000/svg">
<circle cx="30" cy="30" r="28" stroke="#C4C9D9" stroke-width="2"/>
<path d="M31.3298 41.2588C31.0975 41.2117 30.8582 41.2109 30.6256 41.2566C30.393 41.3023 30.1717 41.3935 29.9745 41.525C29.7773 41.6565 29.608 41.8257 29.4764 42.0228C29.3447 42.2199 29.2534 42.4411 29.2075 42.6736C29.1576 42.9061 29.1548 43.1463 29.1993 43.3799C29.2438 43.6135 29.3347 43.8358 29.4666 44.0337C29.5985 44.2315 29.7687 44.401 29.9672 44.5319C30.1658 44.6628 30.3885 44.7526 30.6223 44.7959C30.8546 44.8488 31.0953 44.8537 31.3295 44.8104C31.5638 44.767 31.7867 44.6764 31.9847 44.5439C32.1827 44.4115 32.3517 44.2401 32.4812 44.0401C32.6107 43.8402 32.698 43.6159 32.7379 43.3811C32.8173 42.9146 32.7159 42.4353 32.4542 42.041C32.1926 41.6467 31.7905 41.3669 31.3298 41.2588Z" fill="#C4C9D9"/>
<path d="M30.7395 17C27.8945 17.0106 25.169 18.1456 23.1573 20.1573C21.1456 22.169 20.0106 24.8945 20 27.7395C19.9999 28.9257 20.191 30.1042 20.5659 31.2295C20.7006 31.5978 20.971 31.9007 21.3217 32.0761C21.6725 32.2515 22.077 32.2861 22.4524 32.1728C22.8168 32.0343 23.1146 31.762 23.2849 31.4113C23.4552 31.0607 23.4852 30.6583 23.3687 30.2863C23.0497 29.4111 22.9078 28.4813 22.951 27.5509C22.9956 26.0488 23.476 24.5922 24.3336 23.3583C25.1913 22.1244 26.3893 21.1665 27.7817 20.6014C29.1741 20.0362 30.7008 19.8882 32.1758 20.1752C33.6508 20.4623 35.0105 21.1721 36.0894 22.2181C37.1682 23.2642 37.9195 24.6014 38.2519 26.0669C38.5843 27.5324 38.4833 29.0629 37.9613 30.472C37.4393 31.8812 36.5189 33.1081 35.312 34.0034C34.1051 34.8987 32.6639 35.4237 31.164 35.5146C31.164 35.5146 29.6615 35.6089 28.9069 35.7032C28.6302 35.7423 28.3558 35.7962 28.085 35.8649C28.0655 35.8795 28.0414 35.8866 28.0172 35.8849C27.9929 35.8832 27.9701 35.8727 27.9529 35.8555C27.9357 35.8383 27.9252 35.8155 27.9235 35.7912C27.9218 35.767 27.9289 35.7429 27.9435 35.7234L28.1793 34.45L29.5942 28.0427C29.6755 27.6612 29.6019 27.263 29.3896 26.9358C29.1773 26.6085 28.8438 26.379 28.4623 26.2977C28.0808 26.2164 27.6826 26.29 27.3553 26.5023C27.0281 26.7145 26.7986 27.0481 26.7173 27.4296C26.7173 27.4296 23.3485 43.074 23.3485 43.2155C23.3021 43.4043 23.2948 43.6005 23.3269 43.7922C23.3589 43.9839 23.4298 44.167 23.5352 44.3304C23.6405 44.4938 23.7781 44.6339 23.9394 44.7423C24.1008 44.8506 24.2826 44.9249 24.4737 44.9605C24.6629 45.0058 24.8593 45.0122 25.051 44.9793C25.2428 44.9463 25.4258 44.8748 25.589 44.7689C25.7522 44.663 25.8922 44.5251 26.0004 44.3634C26.1087 44.2018 26.1829 44.0198 26.2187 43.8286C26.2658 43.64 26.6903 41.5648 26.6903 41.5648C26.8467 40.801 27.2334 40.1034 27.7984 39.5662C28.3634 39.0289 29.0795 38.6777 29.8502 38.5599C30.1736 38.5127 31.5413 38.4184 31.5413 38.4184C34.2745 38.1658 36.807 36.8756 38.6182 34.8131C40.4293 32.7506 41.3815 30.0726 41.2788 27.3297C41.1761 24.5868 40.0264 21.9874 38.0662 20.0661C36.1059 18.1448 33.484 17.0476 30.7395 17Z" fill="#C4C9D9"/>
</svg>
