<svg width="45" height="45" viewBox="0 0 45 45" fill="none" xmlns="http://www.w3.org/2000/svg">
<circle cx="22.5" cy="23.25" r="21" stroke="#FFBE54" stroke-width="1.5"/>
<circle cx="22.5" cy="23.25" r="18" fill="#FFBE54" fill-opacity="0.1" stroke="#FFBE54" stroke-opacity="0.5" stroke-width="0.75"/>
<g clip-path="url(#clip0)">
<path d="M23.775 19.7253C23.6376 19.8655 23.5606 20.054 23.5606 20.2503C23.5606 20.4466 23.6376 20.6351 23.775 20.7753L24.975 21.9753C25.1152 22.1127 25.3037 22.1897 25.5 22.1897C25.6963 22.1897 25.8848 22.1127 26.025 21.9753L28.8525 19.1478C29.2296 19.9812 29.3438 20.9097 29.1799 21.8096C29.0159 22.7096 28.5815 23.5382 27.9347 24.185C27.2879 24.8318 26.4593 25.2662 25.5594 25.4301C24.6594 25.5941 23.7309 25.4799 22.8975 25.1028L17.715 30.2853C17.4166 30.5837 17.012 30.7513 16.59 30.7513C16.1681 30.7513 15.7634 30.5837 15.465 30.2853C15.1666 29.9869 14.999 29.5822 14.999 29.1603C14.999 28.7383 15.1666 28.3337 15.465 28.0353L20.6475 22.8528C20.2704 22.0194 20.1562 21.0909 20.3202 20.1909C20.4841 19.291 20.9185 18.4624 21.5653 17.8156C22.2121 17.1688 23.0407 16.7344 23.9407 16.5704C24.8406 16.4065 25.7691 16.5207 26.6025 16.8978L23.7825 19.7178L23.775 19.7253Z" stroke="#FFBE54" stroke-width="1.5" stroke-linecap="round" stroke-linejoin="round"/>
</g>
<defs>
<clipPath id="clip0">
<rect width="18" height="18" fill="white" transform="translate(12.75 15)"/>
</clipPath>
</defs>
</svg>
