<svg width="60" height="60" viewBox="0 0 60 60" fill="none" xmlns="http://www.w3.org/2000/svg">
<circle cx="30" cy="30" r="28" stroke="#C4C9D9" stroke-width="2"/>
<path d="M43.192 21.0499C42.5921 20.5333 41.9256 20.1459 41.1258 20.0168C40.1261 19.8876 39.1264 20.5333 38.4599 20.9853C37.7934 21.4373 36.4604 22.5995 35.9272 23.0515C35.394 23.5035 34.0611 23.7617 31.8616 25.0531C29.6622 26.3445 21.1312 31.6391 21.1312 31.6391H23.3306L13.3999 36.611H14.3996L13 37.6441C13.7998 37.8378 14.5996 37.7086 15.3327 37.3212V37.6441C15.3327 37.6441 27.1296 33.1242 29.3956 34.2865L27.996 34.6739C28.1293 34.6739 30.3287 34.803 30.3287 34.803C30.462 35.707 30.9952 36.5464 31.795 36.9984C33.128 37.8378 33.1946 38.3543 33.1946 38.3543C33.1946 38.3543 32.5281 38.6126 32.5281 39C33.7945 38.6126 35.1274 38.6126 36.3271 39C36.3271 39 36.2605 38.6126 35.3274 38.3543C34.3943 37.9669 33.5945 37.3858 32.9947 36.5464C32.4615 35.8361 32.2615 34.9322 32.5948 34.0928C32.928 33.2534 34.0611 32.8014 36.3938 31.6391C39.1264 30.2832 39.7929 29.2501 40.1261 28.4107C40.4594 27.5713 41.1258 26.0217 41.3924 25.2468C41.659 24.5366 42.1256 23.9555 42.7254 23.4389C43.4585 23.0515 44.2583 22.7286 44.9915 22.4704C45.1248 22.5349 43.6585 21.3727 43.192 21.0499Z" fill="#C4C9D9"/>
</svg>
