<svg width="60" height="60" viewBox="0 0 60 60" fill="none" xmlns="http://www.w3.org/2000/svg">
<circle cx="30" cy="30" r="28" stroke="#C4C9D9" stroke-width="2"/>
<path d="M34.2999 34.8668C35.175 35.742 35.6667 36.929 35.6667 38.1667C35.6667 39.4553 34.622 40.5 33.3334 40.5H20.5C19.2114 40.5 18.1667 39.4553 18.1667 38.1667C18.1667 36.929 18.6584 35.742 19.5335 34.8668C20.4087 33.9917 21.5957 33.5 22.8334 33.5H31C32.2377 33.5 33.4247 33.9917 34.2999 34.8668Z" stroke="#C4C9D9" stroke-width="2" stroke-linecap="round" stroke-linejoin="round"/>
<path d="M26.9167 28.8333C29.494 28.8333 31.5833 26.744 31.5833 24.1667C31.5833 21.5893 29.494 19.5 26.9167 19.5C24.3393 19.5 22.25 21.5893 22.25 24.1667C22.25 26.744 24.3393 28.8333 26.9167 28.8333Z" stroke="#C4C9D9" stroke-width="2" stroke-linecap="round" stroke-linejoin="round"/>
<path d="M40.3333 25.3335V32.3335" stroke="#C4C9D9" stroke-width="2" stroke-linecap="round" stroke-linejoin="round"/>
<path d="M43.8333 28.8335H36.8333" stroke="#C4C9D9" stroke-width="2" stroke-linecap="round" stroke-linejoin="round"/>
</svg>
