<svg width="55" height="55" viewBox="0 0 55 55" fill="none" xmlns="http://www.w3.org/2000/svg">
<circle cx="27.5" cy="27.5" r="26.5" stroke="#6CC8A1" stroke-width="2"/>
<path d="M20 53.0028V52.6009C20 51 17.8474 49.5 16.982 47.8655C15.8994 45.8208 15.3451 44.4979 15.1044 43.0576C15.0355 42.6457 15.0001 42.2424 15.0001 41.8462V38.9615L15.0043 38.8744C15.0057 38.8611 15.0073 38.8473 15.0093 38.833V23.3339C15.0093 21.8536 16 20.5 17.5 20.5C19 20.5 20 22 20 22M31.8839 53.0028V52.0981C31.8839 48.233 39.5 45.2438 39.5 41.8462C39.5 36.0417 39.5 24 39.5 23.9944L38.5534 24.1008C36.5298 24.3281 35 26.0394 35 28.0758V32.5C35 32.5 32.9279 33.6208 32.9279 35.7979C32.9279 37.9751 32.9279 39 32.9279 39" stroke="#6CC8A1" stroke-width="2" stroke-linecap="round" stroke-linejoin="round"/>
<path d="M20 30.5V29.5V18.5C20 17.1193 21.1193 16 22.5 16V16C23.8807 16 25 17.1193 25 18.5V27.25" stroke="#6CC8A1" stroke-width="2" stroke-linecap="round" stroke-linejoin="round"/>
<path d="M30 25.2174V14.5C30 13.1193 28.8807 12 27.5 12V12C26.1193 12 25 13.1193 25 14.5V28" stroke="#6CC8A1" stroke-width="2" stroke-linecap="round" stroke-linejoin="round"/>
<path d="M35 30V18.5C35 17.1193 33.8807 16 32.5 16V16C31.1193 16 30 17.1193 30 18.5V28.1053" stroke="#6CC8A1" stroke-width="2" stroke-linecap="round" stroke-linejoin="round"/>
</svg>
